# xmcd CD database file
# Copyright (C) 1993-2000  Ti Kan
#
# Track frame offsets:
#	150
#	22928
#	78744
#	104477
#	134380
#	162558
#	191104
#
# Disc length: 2713 seconds
#
# Revision: 1
# Processed by: cddbd v1.5.2PL0 Copyright (c) Steve Scherf et al.
# Submitted via: xmcd 2.6 PL0
#
DISCID=5d0a9707
DTITLE=Various Artist - Music With 58 Musicians, Volume One, Disc One
DYEAR=1980
DGENRE=
TTITLE0=Keith Jarrett and Belonging - Country
TTITLE1=Old and New Dreams - Lonely Woman
TTITLE2=Terje Rypdal Group - Avskjed
TTITLE3=Steve Reich and Musicians - Excerpts from Music for 18 Musicians
TTITLE4=Codona - Codona
TTITLE5=Gary Burton and Chick Corea - Senor Mouse
TTITLE6=John Abercrombie and Ralph Towner - Over And Gone
EXTD=Label: ECM.  Recorded from vinyl.
EXTT0=
EXTT1=
EXTT2=
EXTT3=
EXTT4=
EXTT5=
EXTT6=
PLAYORDER=
